<?xml version="1.0" encoding="UTF-8"?>
<svg id="Layer_1" xmlns="http://www.w3.org/2000/svg" version="1.1" viewBox="0 0 128 128">
  <!-- Generator: Adobe Illustrator 29.4.0, SVG Export Plug-In . SVG Version: 2.1.0 Build 152)  -->
  <defs>
    <style>
      .st0 {
        fill: #fff;
      }

      .st1 {
        fill: #425099;
      }
    </style>
  </defs>
  <path class="st1" d="M64,4.7c-19.2,0-38.2,3-56.3,9l-3.8,1.2v4c.3,10.5,1.9,21,4.7,31,2.7,9.8,6.7,19.2,11.7,28,9.9,17.4,24,32.4,40.7,43.3l2.9,1.9,2.9-1.9c16.8-11,30.8-25.9,40.7-43.3,5-8.8,9-18.3,11.7-28,2.8-10,4.4-20.5,4.6-31v-4c.1,0-3.7-1.2-3.7-1.2-18.1-6-37.1-9-56.3-9Z"/>
  <g>
    <path class="st0" d="M21.6,21.9c-2.8.7-5.6,1.6-8.3,2.5,0,2.9.3,5.8.6,8.6,1,9.2,3.2,18.1,6.5,26.4,6.3,16.2,16.6,30.3,29.7,41.3.9.7,1.8,1.5,2.6,2.1,1.9,1.5,3.8,2.8,5.7,4.2v-57c-7,0-14,.4-20.9,1.1.4,1.1.9,2.3,1.4,3.4.7,1.6,1.4,3.1,2.1,4.6,3-.3,6-.5,9.1-.6v30.8c-.2-.2-.5-.5-.7-.7-8.7-8.7-15.5-18.8-20.3-30.1,0-.1,0-.2-.1-.3-3.8-8.9-6.1-18.3-6.9-28,9.1-2.5,18.5-4.2,28-4.8v8.4c2.8-.2,5.5-.3,8.3-.4v-16.7c-2.8,0-5.6.1-8.3.3-9.7.6-19.2,2.2-28.4,4.6Z"/>
    <path class="st0" d="M78,17.2c-2.8-.2-5.5-.3-8.3-.3v28.6l8.3,4.5,6,3.3,14,7.6c-4.7,10.4-11.2,19.8-19.3,27.9-.2.2-.5.5-.7.7v-20h-8.3v37.6c1.9-1.3,3.8-2.7,5.7-4.2.9-.7,1.8-1.4,2.6-2.1,11.6-9.7,21-21.9,27.4-35.8,1.2-2.5,2.2-5.1,3.2-7.8l-7.4-4-8.4-4.5-14.8-8v-14.9c9.5.7,18.9,2.3,28,4.8-.2,2.6-.6,5.2-1,7.7l4.8,1.1,3.3.8c.2-.9.3-1.9.5-2.8.2-1.4.4-2.8.5-4.2.3-2.8.5-5.7.6-8.6-2.7-.9-5.5-1.7-8.3-2.5-9.2-2.4-18.6-4-28.4-4.7Z"/>
  </g>
</svg>